<svg xmlns="http://www.w3.org/2000/svg" width="29" height="25" fill="none"><g clip-path="url(#a)"><path fill="#606060" d="M15.68 13.402h-2.04l-1.094-2.047h2.047l1.086 2.047Z"/><path fill="#0C8BEA" d="m13.992 13.701-.973 2.427-2.913 7.327c-.167.426-.58.706-1.047.706H1.172A1.149 1.149 0 0 1 .1 22.595L7.766 3.348l.013-.033.093-.227s.007 0 0-.007l.32-.793.147-.373.013-.034c.16-.286.38-.533.654-.713l.826 2.08 4.16 10.453Z"/><path fill="#F90" d="m18.992 1.148-5 12.553-4.16-10.446-.826-2.087a1.22 1.22 0 0 1 .26-.14c.26-.127.553-.2.86-.2h7.773c.4 0 .773.12 1.093.32Z"/><path fill="#FFBB37" d="M27.012 24.161h-8.186a.984.984 0 0 1-.92-.626l-2.947-7.407-.973-2.433 5.006-12.547c.227.147.42.34.567.56l.313.787 8.074 20.286a1 1 0 0 1-.934 1.374v.006Z"/><path fill="#F90" d="m10.066 1.342-.233 1.906c-.107-.226-.24-.793-1.1-.793-.434 0-.727.393-.86.627l.32-.794.146-.373s.007-.02.014-.033c.16-.287.38-.534.653-.714a1.22 1.22 0 0 1 .26-.14l.8.314Z"/><path fill="#0C8BEA" d="M21.92 21.628c.9 0 1.626-.726 1.626-1.626 0-.9-.727-1.627-1.627-1.627s-1.627.727-1.627 1.627.727 1.626 1.627 1.626Z"/></g><defs><clipPath id="a"><path fill="#fff" d="M.019.828h28v23.333h-28z"/></clipPath></defs></svg>