<svg xmlns="http://www.w3.org/2000/svg" width="74" height="20" fill="none"><path fill="#0C0C3B" d="M11.496 16.205c-.154-.896-.261-1.374-.446-2.007l-.493-1.575H5.292L4.8 14.198a10.14 10.14 0 0 0-.461 2.007H.012c.277-.556.446-1.004.893-2.254L4.892 2.806c.339-.911.492-1.467.585-1.992h4.818c.123.54.262 1.02.632 1.992l4.002 11.145c.354.988.647 1.744.893 2.254h-4.326ZM7.894 3.964 6.17 9.52h3.463L7.878 3.964h.016ZM20.425.8c-.108.771-.154 1.543-.154 2.793v9.818c0 1.111.03 1.822.154 2.794h-3.864c.108-.834.154-1.466.154-2.794V3.593c0-1.312-.03-2.099-.154-2.794h3.864ZM21.518 10.54c0-3.705 2.37-6.051 6.096-6.051s6.097 2.346 6.097 6.02c0 3.674-2.433 6.128-6.112 6.128-3.68 0-6.08-2.377-6.08-6.097Zm3.526-.015c0 2.053.954 3.287 2.57 3.287 1.617 0 2.525-1.204 2.525-3.257s-.939-3.288-2.51-3.288c-1.57 0-2.585 1.22-2.585 3.257ZM35.004 16.205c.108-.818.154-1.652.154-2.748V3.454c0-1.003-.03-1.837-.154-2.701.862.03 1.54.062 2.71.062h4.048c3.664 0 5.665 1.76 5.665 4.986s-2.109 5.264-5.68 5.264h-2.91v2.377c0 1.096.062 2.006.154 2.794H35.02l-.015-.031Zm6.573-8.32c1.294 0 2.048-.726 2.048-1.992 0-1.265-.724-1.945-2.048-1.945h-2.755v3.937h2.755ZM55.971 8.471c0-.895-.538-1.296-1.755-1.296-1.216 0-1.816.386-2.093 1.296l-3.526-.57c.37-1.097.77-1.683 1.555-2.239 1-.71 2.371-1.05 4.157-1.05 1.37 0 2.694.263 3.417.649 1.186.648 1.694 1.667 1.694 3.334v5.001c0 1.127.03 1.791.123 2.625h-3.587v-.85c-1.032.803-2.063 1.112-3.587 1.112-1.4 0-2.448-.34-3.202-1.019-.662-.617-1.016-1.497-1.016-2.516 0-1.173.462-2.1 1.355-2.701.939-.664 2.186-1.05 3.833-1.204.723-.078 1.278-.093 2.602-.124v-.432l.03-.016Zm0 2.794c-1.647.031-2.432.124-3.202.37-.662.217-1.077.68-1.077 1.22 0 .664.554 1.05 1.508 1.05.755 0 1.586-.278 2.094-.71.431-.37.662-.864.662-1.42v-.525l.015.015ZM61.406 7.39c-.8-1.852-.862-2.022-1.109-2.485H64.3c.092.587.339 1.39.724 2.393l1.693 4.276 1.647-4.199c.524-1.281.678-1.821.8-2.47h4.003a57.294 57.294 0 0 0-1.108 2.486l-4.234 9.786c-.739 1.745-2.063 2.532-4.172 2.532-.816 0-1.508-.093-2.524-.309l.4-2.948c.616.309.954.401 1.447.401.708 0 1.216-.309 1.493-.864l.385-.803-3.448-7.81v.015Z"/></svg>